<?xml version="1.0" encoding="utf-8"?>
<!-- Generator: Adobe Illustrator 16.0.3, SVG Export Plug-In . SVG Version: 6.00 Build 0)  -->
<!DOCTYPE svg PUBLIC "-//W3C//DTD SVG 1.1//EN" "http://www.w3.org/Graphics/SVG/1.1/DTD/svg11.dtd">
<svg version="1.1" id="Layer_1" xmlns="http://www.w3.org/2000/svg" xmlns:xlink="http://www.w3.org/1999/xlink" x="0px" y="0px"
	 width="32px" height="32px" viewBox="0 0 32 32" enable-background="new 0 0 32 32" xml:space="preserve">
<g>
	<path fill="#818181" d="M22.559,0.532H9.443c-0.948,0-1.716,0.757-1.716,1.689v27.556c0,0.934,0.769,1.689,1.716,1.689h13.115
		c0.947,0,1.715-0.756,1.715-1.689V2.222C24.273,1.289,23.506,0.532,22.559,0.532z M21.984,2.438c0.243,0,0.441,0.194,0.441,0.433
		c0,0.24-0.198,0.434-0.441,0.434c-0.242,0-0.438-0.194-0.438-0.434C21.546,2.632,21.742,2.438,21.984,2.438z M12.502,2.591h6.997
		c0.079,0,0.15,0.032,0.203,0.082c0.052,0.051,0.083,0.121,0.083,0.199c0,0.156-0.129,0.281-0.286,0.281h-6.997
		c-0.079,0-0.15-0.031-0.203-0.082c-0.051-0.051-0.083-0.121-0.083-0.2C12.216,2.716,12.344,2.591,12.502,2.591z M17.057,29.792
		c0,0.303-0.25,0.549-0.557,0.549h-0.998c-0.308,0-0.557-0.246-0.557-0.549V28.81c0-0.303,0.25-0.548,0.557-0.548H16.5
		c0.307,0,0.557,0.245,0.557,0.548V29.792z M23.393,27.044H8.608V4.956h14.785V27.044z"/>
	<rect x="15.19" y="20.659" fill="#818181" width="1.621" height="1.553"/>
	<path fill="#818181" d="M14.257,11.8c0.436-0.508,1.027-0.719,1.777-0.719c0.731,0,1.278,0.189,1.629,0.53
		c0.348,0.34,0.525,0.829,0.525,1.446c0,0.479-0.164,0.91-0.492,1.287c-0.323,0.375-0.677,0.742-1.055,1.089
		c-0.385,0.347-0.693,0.716-1.012,1.099c-0.316,0.382-0.44,0.826-0.44,1.335v1.238h1.621v-0.668c0-0.397,0.06-0.743,0.223-1.044
		c0.157-0.303,0.353-0.576,0.601-0.82c0.239-0.246,0.496-0.484,0.783-0.719c0.278-0.231,0.546-0.479,0.786-0.736
		c0.244-0.26,0.449-0.551,0.604-0.873c0.163-0.321,0.244-0.698,0.244-1.14c0-0.382-0.072-0.771-0.222-1.166
		c-0.147-0.399-0.385-0.757-0.704-1.079c-0.328-0.322-0.743-0.579-1.253-0.778c-0.518-0.199-1.123-0.296-1.838-0.296
		c-0.605,0-1.158,0.098-1.66,0.296c-0.503,0.199-0.938,0.475-1.301,0.832c-0.361,0.354-0.642,0.704-0.835,1.202
		c-0.193,0.499-0.29,0.776-0.29,1.553h1.653C13.603,12.894,13.817,12.306,14.257,11.8z"/>
</g>
</svg>
