<?xml version="1.0" encoding="utf-8"?>
<!-- Generator: Adobe Illustrator 16.0.3, SVG Export Plug-In . SVG Version: 6.00 Build 0)  -->
<!DOCTYPE svg PUBLIC "-//W3C//DTD SVG 1.1//EN" "http://www.w3.org/Graphics/SVG/1.1/DTD/svg11.dtd">
<svg version="1.1" id="Layer_1" xmlns="http://www.w3.org/2000/svg" xmlns:xlink="http://www.w3.org/1999/xlink" x="0px" y="0px"
	 width="32px" height="32px" viewBox="0 0 32 32" enable-background="new 0 0 32 32" xml:space="preserve">
<g>
	<path fill="#818181" d="M24.412,0.535H11.795c-0.24,0-0.47,0.098-0.64,0.269L6.351,5.69C6.183,5.862,6.086,6.095,6.086,6.337
		v23.612c0,0.836,0.672,1.516,1.5,1.516h16.825c0.83,0,1.501-0.68,1.501-1.516V2.052C25.913,1.214,25.242,0.535,24.412,0.535z
		 M20.101,17.227v3.629c0,0.105-0.086,0.191-0.188,0.191h-3.161c-0.104,0-0.188-0.086-0.188-0.191v-3.629H20.101z M16.188,17.227
		v3.629c0,0.105-0.083,0.191-0.188,0.191h-3.161c-0.104,0-0.188-0.086-0.188-0.191v-3.629H16.188z M8.274,18.365
		c0-0.629,0.504-1.139,1.125-1.139h2.877v3.629c0,0.105-0.084,0.191-0.188,0.191H8.274V18.365z M9.399,28.713
		c-0.622,0-1.125-0.51-1.125-1.139V25.65h3.815c0.104,0,0.188,0.086,0.188,0.191v2.871H9.399z M12.651,28.713v-2.871
		c0-0.105,0.083-0.191,0.188-0.191H16c0.104,0,0.188,0.086,0.188,0.191v2.871H12.651z M16.563,28.713v-2.871
		c0-0.105,0.083-0.191,0.188-0.191h3.161c0.103,0,0.188,0.086,0.188,0.191v2.871H16.563z M23.728,27.574
		c0,0.629-0.504,1.139-1.126,1.139h-2.127v-2.871c0-0.105,0.084-0.191,0.188-0.191h3.064V27.574z M23.728,25.273H8.274v-3.85h11.827
		c0.207,0,0.374-0.168,0.374-0.377v-3.82h2.127c0.622,0,1.126,0.51,1.126,1.139V25.273z"/>
</g>
</svg>
