<?xml version="1.0" encoding="utf-8"?>
<!-- Generator: Adobe Illustrator 16.0.3, SVG Export Plug-In . SVG Version: 6.00 Build 0)  -->
<!DOCTYPE svg PUBLIC "-//W3C//DTD SVG 1.1//EN" "http://www.w3.org/Graphics/SVG/1.1/DTD/svg11.dtd">
<svg version="1.1" id="Layer_1" xmlns="http://www.w3.org/2000/svg" xmlns:xlink="http://www.w3.org/1999/xlink" x="0px" y="0px"
	 width="32px" height="32px" viewBox="0 0 32 32" enable-background="new 0 0 32 32" xml:space="preserve">
<g>
	<path fill="#818181" d="M3.307,14.395c2.179,1.797,5.174,1.985,7.527,0.713l0.518,0.468l2.211-1.824
		c-0.168-0.451-0.235-0.937-0.19-1.43c0.063-0.699,0.351-1.342,0.809-1.864c0.379-2.223-0.4-4.573-2.282-6.125
		C9.918,2.7,7.35,1.739,5.124,2.648C4.846,2.763,5.987,5.161,5.987,5.161l2.885,0.963L9.82,9.393l-0.902,1.056l-0.899,1.053
		l-3.444-0.348L3.111,8.533c0,0-2.604-0.693-2.669-0.408C-0.084,10.445,1.326,12.762,3.307,14.395z M30.675,24.075l-8.339-6.266
		c-0.174,0.244-0.365,0.474-0.604,0.673c-0.595,0.492-1.368,0.771-2.163,0.771c-0.598,0-1.175-0.156-1.682-0.441l-1.544,1.275
		l10.015,9.048l2.433,0.568l1.442-1.686l1.437-1.686L30.675,24.075z M18.699,16.65c0.403,0.476,1.121,0.536,1.602,0.136
		c0.476-0.388,0.538-1.084,0.15-1.558l8.614-7.057c0.939-0.774,1.063-2.151,0.274-3.074c-0.791-0.923-2.194-1.044-3.129-0.269
		l-8.618,7.058c-0.404-0.464-1.112-0.522-1.588-0.127c-0.48,0.394-0.543,1.104-0.139,1.574l0.698,0.817L4.577,24.034l-1.595,0.481
		l-1.836,2.347l1.438,1.683l2.639-1.295l0.806-1.521l11.976-9.891L18.699,16.65z"/>
</g>
</svg>
